<svg width="24" height="25" viewBox="0 0 24 25" fill="none" xmlns="http://www.w3.org/2000/svg">
<path d="M12 7.7C11.3635 7.7 10.753 7.44714 10.3029 6.99706C9.85286 6.54697 9.6 5.93652 9.6 5.3C9.6 4.66348 9.85286 4.05303 10.3029 3.60294C10.753 3.15286 11.3635 2.9 12 2.9C12.6365 2.9 13.247 3.15286 13.6971 3.60294C14.1471 4.05303 14.4 4.66348 14.4 5.3C14.4 5.93652 14.1471 6.54697 13.6971 6.99706C13.247 7.44714 12.6365 7.7 12 7.7ZM12 14.9C11.3635 14.9 10.753 14.6471 10.3029 14.1971C9.85286 13.747 9.6 13.1365 9.6 12.5C9.6 11.8635 9.85286 11.253 10.3029 10.8029C10.753 10.3529 11.3635 10.1 12 10.1C12.6365 10.1 13.247 10.3529 13.6971 10.8029C14.1471 11.253 14.4 11.8635 14.4 12.5C14.4 13.1365 14.1471 13.747 13.6971 14.1971C13.247 14.6471 12.6365 14.9 12 14.9ZM12 22.1C11.3635 22.1 10.753 21.8471 10.3029 21.3971C9.85286 20.947 9.6 20.3365 9.6 19.7C9.6 19.0635 9.85286 18.453 10.3029 18.0029C10.753 17.5529 11.3635 17.3 12 17.3C12.6365 17.3 13.247 17.5529 13.6971 18.0029C14.1471 18.453 14.4 19.0635 14.4 19.7C14.4 20.3365 14.1471 20.947 13.6971 21.3971C13.247 21.8471 12.6365 22.1 12 22.1Z" fill="black"/>
</svg>
